<svg version="1.1" id="Layer_1" xmlns="http://www.w3.org/2000/svg" xmlns:xlink="http://www.w3.org/1999/xlink" x="0px" y="0px"
	 width="100%" viewBox="0 0 1024 576" enable-background="new 0 0 1024 576" xml:space="preserve">
<path fill="#fff" opacity="1.000000" stroke="none" 
	d="
M294.419495,415.473694 
	C280.204376,380.955963 274.385437,345.282684 277.012543,308.586151 
	C281.583954,244.731033 307.175415,190.347656 354.098541,146.650345 
	C391.952423,111.398849 437.023132,90.476692 488.454254,85.093521 
	C558.598938,77.751663 620.680664,97.716019 673.390869,144.665070 
	C716.970764,183.481750 742.938965,232.451080 750.863159,290.165833 
	C760.272034,358.693726 743.469055,420.840515 700.418274,475.135651 
	C663.801208,521.316833 616.108582,550.940186 558.019958,560.704407 
	C467.364899,575.942810 391.600616,547.254639 331.527313,477.806915 
	C315.635315,459.434937 303.615997,438.439240 294.419495,415.473694 
M587.574280,112.010567 
	C554.635681,100.397522 520.742676,96.893715 486.241913,101.548050 
	C433.454712,108.669312 388.556488,131.775955 352.588470,171.118042 
	C310.099609,217.592728 290.355347,272.571564 293.112213,335.604004 
	C294.600433,369.630829 303.019531,401.890289 319.820404,431.361176 
	C359.870850,501.614532 419.989166,541.526611 501.223663,547.919250 
	C537.119812,550.744080 571.875854,544.816895 604.304810,529.373840 
	C683.478088,491.670532 727.527771,428.420807 736.362976,341.385712 
	C739.764343,307.879456 734.806702,274.811279 722.240723,243.365646 
	C696.933899,180.036926 652.407837,136.094147 587.574280,112.010567 
z"/>
<path fill="#ffff" opacity="1.000000" stroke="none" 
	d="
M479.605713,138.546936 
	C482.449219,136.759155 485.060608,135.271469 487.528381,133.574905 
	C500.039429,124.973679 513.888489,125.746193 527.407959,129.175583 
	C549.748047,134.842377 572.537598,139.990906 591.315552,154.552460 
	C600.328796,161.541916 608.594971,169.101669 614.323792,179.681793 
	C621.656250,193.223495 623.298950,207.730637 625.117676,222.352417 
	C625.756714,227.490417 626.561218,232.552032 627.765015,237.556183 
	C628.789856,241.816528 628.553955,245.834351 626.133423,249.548508 
	C617.175293,263.294189 608.669678,277.395996 595.868408,288.139435 
	C595.022156,288.849670 594.135986,289.926300 593.958069,290.952118 
	C592.752014,297.906372 585.985596,303.431763 588.746399,311.466583 
	C589.070374,312.409485 588.038208,313.991394 587.333984,315.083191 
	C584.877258,318.891998 585.540649,323.123016 584.919312,327.226959 
	C583.685547,335.375885 586.793274,340.434998 592.171631,345.383850 
	C593.888794,346.963837 594.640564,349.624176 593.931824,351.904541 
	C592.819763,355.482361 594.484497,357.222076 597.346375,358.431763 
	C603.216919,360.913269 605.521729,366.487244 608.621948,371.347290 
	C610.239807,373.883453 608.250244,375.278320 605.909363,377.051941 
	C608.543396,376.967316 611.038025,376.923523 611.516357,379.379578 
	C612.485779,384.357117 607.118958,385.006592 604.914551,388.398621 
	C609.123535,392.009766 607.909058,395.636353 603.666504,399.256805 
	C606.984558,399.363617 609.060669,397.860596 611.350464,397.062134 
	C613.589111,396.281464 616.075195,395.461731 617.777527,397.759521 
	C619.612610,400.236694 617.627075,402.064240 616.076843,403.832550 
	C615.778259,404.173035 615.584778,404.605652 615.280945,405.095703 
	C621.780212,404.397552 622.670898,405.160767 622.394775,411.251678 
	C624.182861,410.775848 625.891418,410.244843 627.634766,409.879059 
	C629.330444,409.523285 631.339172,409.523041 632.165649,411.116943 
	C633.409546,413.515625 635.142395,415.330048 636.968201,417.235413 
	C638.499268,418.833130 638.951843,421.184326 637.547913,423.246399 
	C636.243835,425.161804 634.363831,425.482574 632.265930,424.439514 
	C629.480408,423.054565 627.507690,425.177063 625.352417,426.187653 
	C618.941528,429.193756 618.560059,429.160583 614.610291,423.434906 
	C608.414734,426.591095 602.893250,430.785339 597.519348,435.205231 
	C595.976746,436.473999 594.466309,437.789886 592.851501,438.960480 
	C591.283081,440.097351 589.519043,440.803680 587.915588,439.077728 
	C586.167053,437.195618 586.863770,435.299957 588.464172,433.800934 
	C591.691711,430.777924 595.051819,427.896515 598.357300,424.956696 
	C597.965515,424.540436 597.573792,424.124146 597.182007,423.707855 
	C584.387573,433.477020 571.598145,443.252838 558.790283,453.004456 
	C557.602844,453.908478 556.355469,454.768585 555.034851,455.454529 
	C553.140686,456.438354 551.122009,456.800354 549.655701,454.773560 
	C548.188416,452.745483 549.096558,450.913818 550.709900,449.476654 
	C555.559875,445.156250 560.432434,440.858521 565.382935,436.654083 
	C572.585144,430.537262 579.863098,424.509644 586.815308,418.022552 
	C581.586304,419.353363 577.281250,422.387299 572.899414,425.145447 
	C557.530884,434.819275 542.459106,444.933563 528.026917,455.985809 
	C525.602905,457.842194 522.450012,461.736603 519.543335,458.136383 
	C516.388794,454.229248 521.134033,451.987396 523.541382,449.909973 
	C536.534424,438.697998 550.037476,428.122009 564.037903,418.183929 
	C565.306396,417.283508 566.972412,416.677460 567.805054,414.387512 
	C554.979797,420.735718 543.315430,428.004547 532.006714,435.865356 
	C524.891418,440.811249 518.034180,446.096771 511.537292,451.842041 
	C510.542542,452.721771 509.460419,453.519073 508.346741,454.243988 
	C506.703064,455.313904 504.908234,455.889679 503.385101,454.163086 
	C501.732208,452.289368 502.339966,450.289001 503.942871,448.833344 
	C507.639709,445.476135 511.536133,442.339874 515.299255,439.054047 
	C517.018555,437.552826 518.614197,435.910004 519.557251,433.368591 
	C516.598206,435.314697 513.572876,437.168152 510.693665,439.226013 
	C504.459747,443.681519 498.364166,448.332153 492.092255,452.732361 
	C486.387848,456.734406 484.740417,455.962311 483.541229,449.186188 
	C483.403870,448.410004 482.891296,447.700195 482.394958,446.614563 
	C475.730621,449.146576 468.657562,445.852600 461.930420,448.686584 
	C459.912811,449.536621 457.164429,448.426025 455.690216,446.496674 
	C453.937042,444.202301 454.949615,441.724518 456.242493,439.475830 
	C460.742523,431.649384 462.351929,422.681030 466.722748,414.558929 
	C461.329803,410.927429 455.336060,408.615051 452.313934,402.395844 
	C452.313934,405.787720 452.359131,409.180450 452.294159,412.571106 
	C452.263336,414.177643 452.544373,416.205200 450.041199,416.222534 
	C447.577850,416.239594 447.715576,414.273041 447.702454,412.626862 
	C447.679901,409.796661 447.507690,406.931213 447.871185,404.142181 
	C448.564789,398.820282 445.589447,396.112274 441.301270,394.340210 
	C437.001984,392.563538 432.570312,391.108398 428.260315,389.355896 
	C426.097656,388.476501 423.845825,387.372101 423.898010,384.497925 
	C423.948853,381.695770 426.592346,381.465393 428.351929,380.393890 
	C424.045380,372.248047 427.399872,365.414307 435.965302,362.374542 
	C444.410645,359.377350 451.749512,354.170685 458.749664,347.744019 
	C454.803223,345.254517 451.228241,344.090820 447.310089,343.192139 
	C440.483002,341.626373 433.551514,340.376282 426.834503,338.540039 
	C417.866455,336.088379 411.339142,319.727631 415.533112,311.450134 
	C417.310760,307.941650 416.866302,305.731842 413.335876,304.293365 
	C409.110779,302.571838 408.965698,299.250458 409.771423,295.602295 
	C410.132812,293.965973 410.934998,292.421387 409.455139,290.963715 
	C404.084137,285.673431 405.514893,280.243317 409.081238,274.736053 
	C409.974152,273.357178 410.729462,271.889252 411.535492,270.484039 
	C410.113586,267.757599 407.395813,266.880890 405.461060,265.132996 
	C399.252563,259.524078 398.610199,253.715591 404.721649,247.964798 
	C411.638885,241.455826 418.533142,234.976196 424.534790,227.596756 
	C425.269287,226.693649 426.132172,225.893860 426.853729,224.981461 
	C431.772461,218.761658 430.809875,214.832825 423.316620,212.522919 
	C405.591278,207.058792 388.658997,199.746460 372.148163,191.370209 
	C369.889252,190.224243 367.800476,188.949539 366.092865,187.059982 
	C362.701569,183.307343 363.235199,180.305511 368.156342,178.954559 
	C376.775238,176.588577 385.654022,177.113617 394.413239,178.044250 
	C406.317566,179.309036 418.210541,180.780685 429.894318,183.542618 
	C433.553955,184.407730 436.435699,183.374496 438.281311,179.918152 
	C442.936310,171.200439 450.176819,164.848099 457.604889,158.617996 
	C465.121765,152.313416 470.937103,144.135803 479.605713,138.546936 
z"/>
<path fill="#ffff" opacity="1.000000" stroke="none" 
	d="
M517.681519,495.642639 
	C519.890198,494.985992 520.836670,493.383789 521.615723,492.035583 
	C524.085571,492.155975 525.192017,493.780090 526.648682,494.815735 
	C528.950195,496.452118 531.139099,498.292267 533.588135,499.667999 
	C544.405457,505.744598 545.182556,505.074768 545.777405,493.111664 
	C546.427551,480.036499 548.289673,467.215729 558.675415,457.502930 
	C564.624573,451.939240 571.252197,449.826019 579.276123,451.865234 
	C585.383545,453.417419 588.659790,457.735901 590.737671,463.197968 
	C597.239807,459.927612 598.641174,460.521088 601.473816,466.794952 
	C605.026978,474.664795 603.622864,482.579651 599.783081,489.390686 
	C595.057800,497.772369 593.235229,505.180359 600.237366,512.923828 
	C600.370544,513.071106 600.159668,513.529480 600.046082,514.235718 
	C593.419067,512.661499 594.942322,504.128693 589.061829,501.749969 
	C591.408813,498.585358 590.826721,494.957977 590.528320,491.390442 
	C590.241760,487.963287 589.797241,484.549316 589.300293,480.018188 
	C586.426575,487.615204 582.875244,493.724426 577.470154,498.263550 
	C577.226440,500.267242 579.527283,498.560913 579.452393,500.352020 
	C578.326843,503.937683 573.783386,503.362579 571.295105,506.391754 
	C574.091980,507.955231 577.128357,507.156860 579.881104,507.632202 
	C589.177063,509.237518 592.215271,515.121460 587.752380,523.479065 
	C583.533447,531.379944 576.582825,534.602295 567.904907,534.321106 
	C559.651978,534.053711 554.274658,529.767517 551.519531,522.020569 
	C549.995667,517.735718 546.774597,514.096558 546.862244,509.176086 
	C546.891785,507.515625 545.687683,506.574219 543.946960,506.315765 
	C538.059753,505.441589 533.117310,502.515900 527.970093,499.679352 
	C524.947083,498.013458 520.378174,496.335907 516.762207,500.550079 
	C519.361633,502.102539 522.791321,499.165894 524.626465,502.328918 
	C525.557800,503.934235 525.779114,505.731964 524.721558,508.091187 
	C522.649231,504.924805 520.351929,503.677856 516.538879,504.902161 
	C513.185181,505.979004 512.152039,503.301361 512.978760,500.352753 
	C513.588196,498.179138 515.325989,496.777740 517.681519,495.642639 
M553.502136,471.083984 
	C549.555359,480.489197 548.827698,490.358002 549.137878,500.409485 
	C549.239197,503.693695 550.739563,504.674377 553.847168,504.547943 
	C572.799011,503.776978 587.826050,488.029388 587.783325,468.860687 
	C587.757996,457.521515 577.933044,451.209625 567.484558,455.795410 
	C560.831665,458.715302 556.945618,464.190430 553.502136,471.083984 
M561.476929,510.977722 
	C558.024658,511.419250 554.658569,512.081787 551.850647,514.518738 
	C552.758362,518.328918 554.604309,521.450745 556.697449,524.481628 
	C560.182251,529.527771 564.727600,532.576538 571.047424,531.573242 
	C577.511414,530.547058 582.517944,527.144653 585.308960,521.075745 
	C587.956177,515.319580 586.413086,512.214355 580.211243,510.949066 
	C574.289917,509.741028 568.293396,510.036804 561.476929,510.977722 
M599.081299,468.903412 
	C598.219849,467.623596 597.963074,465.642914 595.201355,465.995056 
	C591.962097,474.655334 593.530029,483.598053 594.135498,492.533051 
	C599.180359,485.572021 600.794128,477.925354 599.081299,468.903412 
M553.171143,509.883179 
	C554.987915,509.353577 557.017761,509.310150 558.997375,507.032227 
	C556.284912,507.231781 554.239380,507.345642 552.202881,507.549591 
	C551.352356,507.634766 550.520874,508.035400 550.678467,509.070374 
	C550.837341,510.113586 551.723389,510.126648 553.171143,509.883179 
z"/>
<path fill="#ffff" opacity="1.000000" stroke="none" 
	d="
M417.824951,485.979431 
	C411.907562,475.864929 415.254150,465.838043 426.297974,460.620636 
	C438.482971,454.864075 451.534698,453.578552 464.799103,454.221527 
	C468.175140,454.385193 471.811768,454.288879 474.853180,456.481995 
	C474.814911,458.917084 473.157196,459.522278 470.998138,460.071655 
	C469.703156,456.208862 466.029510,456.589447 463.238770,456.628265 
	C450.732178,456.802185 438.321350,457.796509 426.825684,463.584320 
	C421.066162,466.484100 417.521576,471.153076 417.637756,477.355225 
	C417.747681,483.224274 422.307159,486.628387 427.402069,488.939392 
	C435.408997,492.571259 444.096252,493.268402 452.614441,494.670380 
	C459.034912,495.727081 465.436646,496.882690 471.277710,499.914185 
	C480.199585,504.544617 481.266541,511.680908 473.323151,517.768738 
	C462.460480,526.093811 450.154022,530.071777 436.299316,527.023987 
	C434.699982,526.672119 433.072418,526.054688 431.693420,525.186340 
	C429.564026,523.845642 427.477631,522.170410 428.001923,519.225586 
	C428.498718,516.435303 430.885620,515.768311 433.241333,515.373474 
	C444.301514,513.519592 455.423309,513.021729 466.555847,514.475952 
	C470.230682,514.955994 473.294037,514.827454 474.634094,510.766754 
	C475.946014,506.791351 473.180511,504.896851 470.364349,503.325989 
	C463.380768,499.430511 455.546387,498.502197 447.828796,497.352570 
	C441.561523,496.419006 435.356689,495.264648 429.324677,493.351166 
	C424.994904,491.977722 421.047607,489.849915 417.824951,485.979431 
M457.376892,523.022095 
	C460.740387,521.858887 463.963684,520.456909 467.457123,517.460388 
	C454.598846,516.100098 442.855774,515.212463 431.567749,520.379089 
	C439.449860,526.408386 448.021698,524.999023 457.376892,523.022095 
z"/>
<path fill="#ffff" opacity="1.000000" stroke="none" 
	d="
M504.065369,492.102600 
	C507.307831,492.532074 510.442841,493.014740 511.053436,496.362640 
	C511.697479,499.894043 508.875275,501.640656 506.226929,503.156464 
	C503.412140,504.767609 500.644440,506.647491 496.317505,505.830688 
	C499.829803,501.723480 505.993408,502.352631 508.075897,497.522614 
	C504.743835,494.698029 499.815857,495.901672 497.108307,500.311768 
	C494.776978,504.109131 494.386444,508.398651 494.260406,512.767456 
	C494.169067,515.933411 495.085571,519.264954 492.884827,523.463684 
	C488.704590,515.252258 493.082520,506.421295 487.992340,498.767609 
	C487.350708,501.008911 486.982147,502.683655 486.387238,504.273682 
	C485.688812,506.140442 484.896149,508.346100 482.385223,507.935303 
	C480.210999,507.579529 479.108673,505.693146 478.892517,503.580536 
	C478.719940,501.894165 477.982361,500.011169 479.565369,498.512543 
	C481.968658,498.883057 480.661377,501.519928 482.427399,502.536224 
	C484.628357,501.006104 483.830505,498.063141 485.256042,495.853821 
	C488.327728,495.803864 490.735107,497.133545 492.549957,500.280487 
	C495.735016,496.484772 498.685669,492.805756 504.065369,492.102600 
z"/>
<path fill="#ffff" opacity="1.000000" stroke="none" 
	d="
M612.976501,496.936340 
	C612.575806,498.567200 611.623413,498.986420 610.014832,498.508514 
	C607.690063,497.817871 605.808472,498.594727 604.083313,501.026733 
	C606.611328,501.798065 609.211548,499.764069 611.232727,501.329193 
	C613.387451,502.997742 613.668335,505.310669 612.669495,508.961945 
	C610.495361,504.448273 607.834412,503.053711 603.895203,505.007263 
	C602.645264,505.627167 601.327087,504.744995 600.507446,503.551697 
	C599.646362,502.298096 599.947876,501.069397 600.602661,499.816467 
	C602.815125,495.583008 607.790344,494.222900 612.699097,496.799866 
	C612.993225,496.978394 612.976501,496.936340 612.976501,496.936340 
z"/>
<path fill="#ffff" opacity="1.000000" stroke="none" 
	d="
M621.966858,502.026428 
	C623.804810,499.050812 625.576904,496.040527 629.443787,495.262695 
	C631.909790,494.766602 633.920227,495.059692 635.503357,497.918427 
	C632.431335,498.841797 628.704163,496.949799 627.079407,501.039429 
	C629.555664,501.923981 632.510620,499.434143 634.511963,501.796417 
	C635.793213,503.308746 636.354553,505.270020 635.411133,507.940979 
	C633.125000,504.530457 630.361511,503.648560 626.718750,505.046356 
	C624.792542,505.785461 623.267334,504.414642 622.179321,502.295715 
	C621.997009,501.986877 621.966858,502.026428 621.966858,502.026428 
z"/>
<path fill="#ffff" opacity="1.000000" stroke="none" 
	d="
M613.003296,496.998444 
	C617.042786,493.059021 616.190002,499.010468 618.943481,499.509399 
	C619.690125,499.395538 622.678772,496.381958 622.004395,501.672791 
	C621.966858,502.026428 621.997009,501.986877 622.008728,501.964478 
	C620.290588,503.668213 620.229126,507.704529 617.015137,507.077728 
	C614.148193,506.518616 615.040344,503.058228 614.451782,500.800262 
	C614.166077,499.704010 613.725769,498.648102 613.165955,497.255127 
	C612.976501,496.936340 612.993225,496.978394 613.003296,496.998444 
z"/>
</svg>